<?xml version="1.0" encoding="utf-8"?>
<!-- Generator: Adobe Illustrator 21.0.0, SVG Export Plug-In . SVG Version: 6.00 Build 0)  -->
<svg version="1.1" xmlns="http://www.w3.org/2000/svg" xmlns:xlink="http://www.w3.org/1999/xlink" x="0px" y="0px"
	 viewBox="0 0 64 64" style="enable-background:new 0 0 64 64;" xml:space="preserve">
<style type="text/css">
	.st0{fill:#68C7C2;}
	.st1{fill:#1CACAB;}
	.st2{fill:#0B3442;}
	.st3{fill:#002539;}
	.st4{fill:#D22227;}
	.st5{fill:#DD2B26;}
	.st6{fill:#F2F2F2;}
	.st7{fill:#A31C37;}
	.st8{fill:#CCCCCC;}
	.st9{fill:#F99D28;}
	.st10{fill:#FCB216;}
	.st11{fill:#FED767;}
	.st12{fill:#F47D36;}
	.st13{fill:#F78F1E;}
	.st14{fill:#FFCA3E;}
	.st15{fill:#2E599C;}
	.st16{fill:#283996;}
	.st17{fill:#4279BD;}
	.st18{fill:#538AC8;}
	.st19{fill:#CCDDE7;}
	.st20{fill:#ABBAC3;}
	.st21{fill:#F05138;}
	.st22{fill:#3B6BB4;}
	.st23{fill:#E54325;}
	.st24{fill:#FEBF3F;}
	.st25{fill:#E6E6E6;}
	.st26{fill:#FFE8C9;}
	.st27{fill:#999999;}
	.st28{fill:#B3B3B3;}
	.st29{fill:none;stroke:#000000;stroke-linecap:round;stroke-linejoin:round;stroke-miterlimit:10;}
	.st30{fill:#BD8150;}
	.st31{fill:#DFA57A;}
	.st32{fill:#FDCC99;}
	.st33{fill:#FED9B4;}
	.st34{fill:#EE2761;}
	.st35{fill:#EF4E79;}
	.st36{fill:#DB1B51;}
	.st37{fill:#FBB684;}
	.st38{fill:#354E5A;}
	.st39{fill:#55C9E9;}
	.st40{fill:#02BFE2;}
	.st41{fill:#0980B7;}
	.st42{fill:#A36841;}
	.st43{fill:#7EC3EC;}
	.st44{fill:#65A8DC;}
	.st45{fill:#57646E;}
	.st46{fill:#7A8D9D;}
	.st47{fill:#FEE7A3;}
	.st48{fill:#CC2B57;}
	.st49{fill:#F16F8D;}
	.st50{fill:#00969D;}
	.st51{fill:#00A8C7;}
	.st52{fill:#00B08E;}
	.st53{fill:#56BF98;}
	.st54{fill:#8AD5EC;}
</style>
<g id="guides">
</g>
<g id="_x32_5._location_pin">
</g>
<g id="_x32_4._first_aid_kit">
</g>
<g id="_x32_3._medicine">
</g>
<g id="_x32_2._pills">
</g>
<g id="_x32_1._flask">
</g>
<g id="_x32_0._syringe">
</g>
<g id="_x31_9._brain">
</g>
<g id="_x31_8._bandage">
</g>
<g id="_x31_7._bed">
</g>
<g id="_x31_6._blood_test">
</g>
<g id="_x31_5._rx">
</g>
<g id="_x31_4._injury">
</g>
<g id="_x31_3._call">
</g>
<g id="_x31_2._heart">
</g>
<g id="_x31_1._stethoscope">
</g>
<g id="_x31_0._hospital">
</g>
<g id="_x39_._blood_donation">
</g>
<g id="_x38_._charity">
</g>
<g id="_x37_._test_tube">
</g>
<g id="_x36_._expenses">
</g>
<g id="_x35_._folder">
</g>
<g id="_x34_._insurance">
</g>
<g id="_x33_._dna">
</g>
<g id="_x32_._health_report">
	<path class="st39" d="M49,12.5v44c0,1.3800049-1.1199951,2.5-2.5,2.5h-29c-1.3800049,0-2.5-1.1199951-2.5-2.5v-44
		c0-1.3800049,1.1199951-2.5,2.5-2.5h29C47.8800049,10,49,11.1199951,49,12.5z"/>
	<path class="st40" d="M49,55.8800049V56.5c0,1.3800049-1.1199951,2.5-2.5,2.5h-29c-1.3800049,0-2.5-1.1199951-2.5-2.5v-44
		c0-1.3800049,1.1199951-2.5,2.5-2.5h1.4799805C18.9299927,16.5999756,19.9699707,53.5,49,55.8800049z"/>
	<path class="st2" d="M40.25,11c-0.0800171,0.3499756-0.2299805,0.6799927-0.4500122,0.9699707
		C39.3099976,12.6300049,38.5599976,13,37.75,13h-11.5c-0.8099976,0-1.5599976-0.3699951-2.0499878-1.0300293
		C23.710022,11.3200073,23.5499878,10.5,23.7800293,9.7099609c0.6099854-2.1300049,2.2599487-3.7599487,4.2999878-4.4099731
		C28.7000122,5.0999756,29.3499756,5,30.0300293,5h3.9399414c2.8900146,0,5.460022,1.9400024,6.25,4.7099609
		C40.3499756,10.1400146,40.3499756,10.5799561,40.25,11z"/>
	<path class="st38" d="M40.25,11h-11c-0.8099976,0-1.5599976-0.3699951-2.0499878-1.0300293
		C26.710022,9.3200073,26.5499878,8.5,26.7800293,7.7099609c0.2599487-0.9099731,0.7099609-1.7199707,1.2999878-2.4099731
		C28.7000122,5.0999756,29.3499756,5,30.0300293,5h3.9399414c2.8900146,0,5.460022,1.9400024,6.25,4.7099609
		C40.3499756,10.1400146,40.3499756,10.5799561,40.25,11z"/>
	<path class="st20" d="M34,9c0,0.289978-0.0599976,0.5700073-0.1799927,0.8200073C33.5100098,10.5100098,32.8099976,11,32,11
		c-1.0999756,0-2-0.9000244-2-2c0-0.8099976,0.4899902-1.5100098,1.1799927-1.8200073C31.4299927,7.0599976,31.710022,7,32,7
		C33.0999756,7,34,7.8999634,34,9z"/>
	<path class="st19" d="M34,9c0,0.289978-0.0599976,0.5700073-0.1799927,0.8200073C33.5700073,9.9400024,33.289978,10,33,10
		c-1.0999756,0-2-0.9000244-2-2c0-0.2900391,0.0599976-0.5700073,0.1799927-0.8200073C31.4299927,7.0599976,31.710022,7,32,7
		C33.0999756,7,34,7.8999634,34,9z"/>
	<path class="st6" d="M44.5,15h-25c-0.8271484,0-1.5,0.6728516-1.5,1.5v38c0,0.8271484,0.6728516,1.5,1.5,1.5h25
		c0.8271484,0,1.5-0.6728516,1.5-1.5v-38C46,15.6728516,45.3271484,15,44.5,15z"/>
	<path class="st25" d="M19.1380615,15.0491943C18.486145,15.2122192,18,15.7982788,18,16.5v38c0,0.8271484,0.6728516,1.5,1.5,1.5h25
		c0.4802246,0,0.9036255-0.230896,1.1783447-0.5830078C24.0880127,51.3736572,19.8967285,26.6877441,19.1380615,15.0491943z"/>
	<path class="st5" d="M32.5,22H29v-3.5c0-0.2763672-0.2236328-0.5-0.5-0.5h-3c-0.2763672,0-0.5,0.2236328-0.5,0.5V22h-3.5
		c-0.2763672,0-0.5,0.2236328-0.5,0.5v3c0,0.2763672,0.2236328,0.5,0.5,0.5H25v3.5c0,0.2763672,0.2236328,0.5,0.5,0.5h3
		c0.2763672,0,0.5-0.2236328,0.5-0.5V26h3.5c0.2763672,0,0.5-0.2236328,0.5-0.5v-3C33,22.2236328,32.7763672,22,32.5,22z"/>
	<path class="st46" d="M42.5,22h-7c-0.2763672,0-0.5,0.2236328-0.5,0.5v3c0,0.2763672,0.2236328,0.5,0.5,0.5h7
		c0.2763672,0,0.5-0.2236328,0.5-0.5v-3C43,22.2236328,42.7763672,22,42.5,22z"/>
	<g>
		<path class="st46" d="M42.5,29h-7c-0.2763672,0-0.5-0.2236328-0.5-0.5s0.2236328-0.5,0.5-0.5h7c0.2763672,0,0.5,0.2236328,0.5,0.5
			S42.7763672,29,42.5,29z"/>
	</g>
	<path class="st46" d="M42.5,36h-21c-0.2763672,0-0.5,0.2236328-0.5,0.5v3c0,0.2763672,0.2236328,0.5,0.5,0.5h21
		c0.2763672,0,0.5-0.2236328,0.5-0.5v-3C43,36.2236328,42.7763672,36,42.5,36z"/>
	<path class="st45" d="M21.5,40h4.0705566c-0.7003174-1.305481-1.3267212-2.6439819-1.8870239-4H21.5
		c-0.2763672,0-0.5,0.2236328-0.5,0.5v3C21,39.7763672,21.2236328,40,21.5,40z"/>
	<path class="st46" d="M42.5,43h-21c-0.2763672,0-0.5,0.2236328-0.5,0.5v3c0,0.2763672,0.2236328,0.5,0.5,0.5h21
		c0.2763672,0,0.5-0.2236328,0.5-0.5v-3C43,43.2236328,42.7763672,43,42.5,43z"/>
	<path class="st45" d="M21.5,47h8.9770508c-1.1486206-1.2524414-2.1836548-2.5936279-3.1152344-4H21.5
		c-0.2763672,0-0.5,0.2236328-0.5,0.5v3C21,46.7763672,21.2236328,47,21.5,47z"/>
	<g>
		<path d="M48.5,16c0.2763672,0,0.5-0.2236328,0.5-0.5v-3c0-1.378418-1.121582-2.5-2.5-2.5h-6.2286377
			c-0.0161133-0.0953369-0.0202026-0.1911011-0.0472412-0.2856445c-0.206543-0.7231445-0.5327148-1.3979492-0.9697266-2.0058594
			c-0.1616211-0.2250977-0.4750977-0.2763672-0.6977539-0.1147461c-0.2246094,0.1611328-0.2758789,0.4736328-0.1147461,0.6977539
			c0.3696289,0.5146484,0.6459961,1.0854492,0.8203125,1.6972656c0.1376953,0.4804688,0.0439453,0.9848633-0.2568359,1.3837891
			C38.7041016,11.7709961,38.2451172,12,37.7456055,12H26.2543945c-0.4995117,0-0.9584961-0.2290039-1.2597656-0.6274414
			c-0.3007813-0.3989258-0.3945313-0.9033203-0.2568359-1.3837891C25.4086914,7.6401367,27.5830078,6,30.0258789,6h3.9482422
			c0.9760742,0,1.9365234,0.2602539,2.777832,0.7529297c0.2363281,0.1386719,0.5439453,0.0595703,0.684082-0.1791992
			c0.1391602-0.2382813,0.059082-0.5444336-0.1791992-0.684082C36.2626953,5.3076172,35.1274414,5,33.9741211,5h-3.9482422
			c-2.8867188,0-5.4570313,1.9384766-6.25,4.7143555C23.7488403,9.8088989,23.744751,9.9046631,23.7286377,10H17.5
			c-1.378418,0-2.5,1.121582-2.5,2.5v44c0,1.378418,1.121582,2.5,2.5,2.5h29c1.378418,0,2.5-1.121582,2.5-2.5v-37
			c0-0.2763672-0.2236328-0.5-0.5-0.5S48,19.2236328,48,19.5v37c0,0.8271484-0.6728516,1.5-1.5,1.5h-29
			c-0.8271484,0-1.5-0.6728516-1.5-1.5v-44c0-0.8271484,0.6728516-1.5,1.5-1.5h6.2505493
			c0.0801392,0.3462524,0.2232056,0.6793213,0.4457397,0.9746094C24.6879883,12.6259766,25.4379883,13,26.2543945,13h11.4912109
			c0.8164063,0,1.5664063-0.3740234,2.0581055-1.0253906C40.0262451,11.6793213,40.1693115,11.3462524,40.2494507,11H46.5
			c0.8271484,0,1.5,0.6728516,1.5,1.5v3C48,15.7763672,48.2236328,16,48.5,16z"/>
		<path d="M32,7c-1.1030273,0-2,0.8969727-2,2s0.8969727,2,2,2s2-0.8969727,2-2S33.1030273,7,32,7z M32,10
			c-0.5512695,0-1-0.4487305-1-1s0.4487305-1,1-1s1,0.4487305,1,1S32.5512695,10,32,10z"/>
		<path d="M18.5,52c-0.2763672,0-0.5,0.2236328-0.5,0.5v2c0,0.8271484,0.6728516,1.5,1.5,1.5h25c0.8271484,0,1.5-0.6728516,1.5-1.5
			v-38c0-0.8271484-0.6728516-1.5-1.5-1.5h-25c-0.8271484,0-1.5,0.6728516-1.5,1.5v33c0,0.2763672,0.2236328,0.5,0.5,0.5
			s0.5-0.2236328,0.5-0.5v-33c0-0.2758789,0.2241211-0.5,0.5-0.5h25c0.2758789,0,0.5,0.2241211,0.5,0.5v38
			c0,0.2758789-0.2241211,0.5-0.5,0.5h-25c-0.2758789,0-0.5-0.2241211-0.5-0.5v-2C19,52.2236328,18.7763672,52,18.5,52z"/>
		<path d="M28.5,18h-3c-0.2763672,0-0.5,0.2236328-0.5,0.5V22h-3.5c-0.2763672,0-0.5,0.2236328-0.5,0.5v3
			c0,0.2763672,0.2236328,0.5,0.5,0.5H25v3.5c0,0.2763672,0.2236328,0.5,0.5,0.5h3c0.2763672,0,0.5-0.2236328,0.5-0.5V26h3.5
			c0.2763672,0,0.5-0.2236328,0.5-0.5v-3c0-0.2763672-0.2236328-0.5-0.5-0.5H29v-3.5C29,18.2236328,28.7763672,18,28.5,18z M32,23v2
			h-3.5c-0.2763672,0-0.5,0.2236328-0.5,0.5V29h-2v-3.5c0-0.2763672-0.2236328-0.5-0.5-0.5H22v-2h3.5
			c0.2763672,0,0.5-0.2236328,0.5-0.5V19h2v3.5c0,0.2763672,0.2236328,0.5,0.5,0.5H32z"/>
		<path d="M38.5,23c0.2763672,0,0.5-0.2236328,0.5-0.5S38.7763672,22,38.5,22h-3c-0.2763672,0-0.5,0.2236328-0.5,0.5v3
			c0,0.2763672,0.2236328,0.5,0.5,0.5h7c0.2763672,0,0.5-0.2236328,0.5-0.5v-3c0-0.2763672-0.2236328-0.5-0.5-0.5h-1
			c-0.2763672,0-0.5,0.2236328-0.5,0.5s0.2236328,0.5,0.5,0.5H42v2h-6v-2H38.5z"/>
		<path d="M35.5,29h7c0.2763672,0,0.5-0.2236328,0.5-0.5S42.7763672,28,42.5,28h-7c-0.2763672,0-0.5,0.2236328-0.5,0.5
			S35.2236328,29,35.5,29z"/>
		<path d="M21,39.5c0,0.2763672,0.2236328,0.5,0.5,0.5h21c0.2763672,0,0.5-0.2236328,0.5-0.5v-3c0-0.2763672-0.2236328-0.5-0.5-0.5
			h-21c-0.2763672,0-0.5,0.2236328-0.5,0.5V39.5z M22,37h20v2H22V37z"/>
		<path d="M21,46.5c0,0.2763672,0.2236328,0.5,0.5,0.5h21c0.2763672,0,0.5-0.2236328,0.5-0.5v-3c0-0.2763672-0.2236328-0.5-0.5-0.5
			h-2c-0.2763672,0-0.5,0.2236328-0.5,0.5s0.2236328,0.5,0.5,0.5H42v2H22v-2h15.5c0.2763672,0,0.5-0.2236328,0.5-0.5
			S37.7763672,43,37.5,43h-16c-0.2763672,0-0.5,0.2236328-0.5,0.5V46.5z"/>
	</g>
</g>
<g id="_x31_._ambulance">
</g>
</svg>
